<svg width="128" height="128" viewBox="0 0 128 128" xmlns="http://www.w3.org/2000/svg">
  <defs>
    <linearGradient id="grad" x1="0%" y1="0%" x2="100%" y2="100%">
      <stop offset="0%" style="stop-color:#4ecdc4;stop-opacity:1" />
      <stop offset="100%" style="stop-color:#44a08d;stop-opacity:1" />
    </linearGradient>
  </defs>
  <rect width="128" height="128" fill="url(#grad)" rx="16"/>
  <g transform="translate(32, 32)">
    <!-- Chess King -->
    <path d="M32 8 L40 8 L40 16 L48 16 L48 24 L40 24 L40 32 L48 32 L48 40 L40 40 L40 48 L32 48 L32 40 L24 40 L24 32 L32 32 L32 24 L24 24 L24 16 L32 16 Z" fill="white"/>
    <circle cx="36" cy="12" r="2" fill="white"/>
    <rect x="34" y="20" width="4" height="8" fill="white"/>
  </g>
  <text x="64" y="110" text-anchor="middle" fill="white" font-family="Arial" font-size="12" font-weight="bold">Chess Bot</text>
</svg>